<svg xmlns="http://www.w3.org/2000/svg" viewBox="0 0 512 512" width="512" height="512" role="img" aria-label="ONYX app icon">
  <defs>
    <linearGradient id="onyx-red" x1="0" y1="0" x2="0.35" y2="1">
      <stop offset="0%" stop-color="#f3141f" />
      <stop offset="48%" stop-color="#e30613" />
      <stop offset="100%" stop-color="#b0050f" />
    </linearGradient>
    <radialGradient id="onyx-sheen" cx="0.3" cy="0.16" r="0.9">
      <stop offset="0%" stop-color="#ffffff" stop-opacity="0.24" />
      <stop offset="62%" stop-color="#ffffff" stop-opacity="0" />
    </radialGradient>
  </defs>
  <rect width="512" height="512" rx="120" fill="url(#onyx-red)" />
  <rect width="512" height="512" rx="120" fill="url(#onyx-sheen)" />
  <g fill="#ffffff">
    <path d="M116 256c0-48.6 33.4-83.5 80.5-83.5S277 207.4 277 256s-33.4 83.5-80.5 83.5S116 304.6 116 256Zm124.7 0c0-28.7-19-49.7-44.2-49.7S152 227.3 152 256s18.9 49.7 44.5 49.7 44.2-21 44.2-49.7Z" />
    <path d="M296 176.8h33.4l60.2 97.3v-97.3h32.7v158.6h-33.1l-60.5-97.9v97.9H296V176.8Z" />
    <path d="M124 372h30.6l25.4 41.5 25.2-41.5h30.1l-38.4 61.8 40 63.7h-30.8l-26.4-43.3-26.1 43.3H123l40-63.7L124 372Z" />
  </g>
</svg>
